<mxfile host="app.diagrams.net" modified="2024-04-15T15:37:37.725Z" agent="Mozilla/5.0 (X11; Linux x86_64) AppleWebKit/537.36 (KHTML, like Gecko) Chrome/123.0.0.0 Safari/537.36" etag="i5KDrLOIbZZGr-9rhiJT" version="24.0.7" type="device" pages="2">
  <diagram id="Y3CNetd1ubb8mMbnE4d9" name="Thots">
    <mxGraphModel dx="1167" dy="708" grid="1" gridSize="10" guides="1" tooltips="1" connect="1" arrows="1" fold="1" page="0" pageScale="1" pageWidth="827" pageHeight="1169" math="0" shadow="0">
      <root>
        <mxCell id="0" />
        <mxCell id="1" parent="0" />
        <mxCell id="7m-EHroy_bR_Oe2y78SF-1" value="Что требуется?&lt;div&gt;&lt;br&gt;&lt;/div&gt;&lt;div&gt;1. Возможность включения/выключения&lt;/div&gt;&lt;div&gt;2. Возможность изменения состояния (при наличии)&lt;/div&gt;&lt;div&gt;&lt;strike&gt;3. Возможность изменения цвета/теплоты (при наличии)&lt;/strike&gt;&lt;/div&gt;&lt;div&gt;4. Просмотр состояния (2, 3)&lt;/div&gt;&lt;div&gt;5. Сохранение последнего состояния (2, 3)&lt;/div&gt;&lt;div&gt;6. Задание состояния по умолчанию (2, 3)&lt;/div&gt;" style="text;html=1;align=left;verticalAlign=middle;resizable=0;points=[];autosize=1;strokeColor=#82b366;fillColor=#d5e8d4;" vertex="1" parent="1">
          <mxGeometry x="110" y="60" width="340" height="130" as="geometry" />
        </mxCell>
        <mxCell id="7m-EHroy_bR_Oe2y78SF-6" style="edgeStyle=orthogonalEdgeStyle;rounded=0;orthogonalLoop=1;jettySize=auto;html=1;exitX=1;exitY=0.5;exitDx=0;exitDy=0;entryX=0;entryY=0.5;entryDx=0;entryDy=0;" edge="1" parent="1" source="7m-EHroy_bR_Oe2y78SF-2" target="7m-EHroy_bR_Oe2y78SF-5">
          <mxGeometry relative="1" as="geometry" />
        </mxCell>
        <mxCell id="7m-EHroy_bR_Oe2y78SF-2" value="Dump (4, 5, 6)" style="rounded=0;whiteSpace=wrap;html=1;" vertex="1" parent="1">
          <mxGeometry x="300" y="280" width="120" height="60" as="geometry" />
        </mxCell>
        <mxCell id="7m-EHroy_bR_Oe2y78SF-4" style="edgeStyle=orthogonalEdgeStyle;rounded=0;orthogonalLoop=1;jettySize=auto;html=1;exitX=1;exitY=0.5;exitDx=0;exitDy=0;entryX=0;entryY=0.5;entryDx=0;entryDy=0;endArrow=none;endFill=0;" edge="1" parent="1" source="7m-EHroy_bR_Oe2y78SF-3" target="7m-EHroy_bR_Oe2y78SF-2">
          <mxGeometry relative="1" as="geometry" />
        </mxCell>
        <mxCell id="7m-EHroy_bR_Oe2y78SF-3" value="Provider (1, 2, 4)" style="rounded=0;whiteSpace=wrap;html=1;" vertex="1" parent="1">
          <mxGeometry x="100" y="280" width="120" height="60" as="geometry" />
        </mxCell>
        <mxCell id="7m-EHroy_bR_Oe2y78SF-5" value="LightControl" style="rounded=0;whiteSpace=wrap;html=1;" vertex="1" parent="1">
          <mxGeometry x="550" y="280" width="120" height="60" as="geometry" />
        </mxCell>
        <mxCell id="7m-EHroy_bR_Oe2y78SF-8" value="Интерфейс взаимодействия&lt;div&gt;с устройствами&lt;div&gt;различных производителей&lt;/div&gt;&lt;/div&gt;" style="text;html=1;align=center;verticalAlign=middle;resizable=0;points=[];autosize=1;strokeColor=none;fillColor=default;" vertex="1" parent="1">
          <mxGeometry x="520" y="360" width="180" height="60" as="geometry" />
        </mxCell>
        <mxCell id="7m-EHroy_bR_Oe2y78SF-10" value="- Реализация взаимодействия&lt;div&gt;с конечеными устройствами&lt;/div&gt;&lt;div&gt;- Получение их актуального&lt;/div&gt;&lt;div&gt;состояния&lt;/div&gt;" style="text;html=1;align=left;verticalAlign=middle;resizable=0;points=[];autosize=1;strokeColor=none;fillColor=default;" vertex="1" parent="1">
          <mxGeometry x="65" y="360" width="190" height="70" as="geometry" />
        </mxCell>
        <mxCell id="7m-EHroy_bR_Oe2y78SF-12" style="edgeStyle=orthogonalEdgeStyle;rounded=0;orthogonalLoop=1;jettySize=auto;html=1;exitX=0;exitY=0.5;exitDx=0;exitDy=0;entryX=1;entryY=0.5;entryDx=0;entryDy=0;" edge="1" parent="1" source="7m-EHroy_bR_Oe2y78SF-11" target="7m-EHroy_bR_Oe2y78SF-5">
          <mxGeometry relative="1" as="geometry" />
        </mxCell>
        <mxCell id="7m-EHroy_bR_Oe2y78SF-11" value="UI&lt;div&gt;(CLI)&lt;/div&gt;" style="rounded=0;whiteSpace=wrap;html=1;" vertex="1" parent="1">
          <mxGeometry x="740" y="280" width="120" height="60" as="geometry" />
        </mxCell>
        <mxCell id="7m-EHroy_bR_Oe2y78SF-13" value="Состояние:&lt;div&gt;&lt;br&gt;&lt;div&gt;- яркость&lt;/div&gt;&lt;div&gt;- цвет&lt;/div&gt;&lt;div style=&quot;&quot;&gt;- режим (предустановленный/заводской)&lt;/div&gt;&lt;/div&gt;" style="text;html=1;align=left;verticalAlign=middle;resizable=0;points=[];autosize=1;strokeColor=#d6b656;fillColor=#fff2cc;" vertex="1" parent="1">
          <mxGeometry x="510" y="80" width="250" height="90" as="geometry" />
        </mxCell>
        <mxCell id="7m-EHroy_bR_Oe2y78SF-14" value="Подразумевается использование CLI, поэтому&lt;div&gt;никакой автоматизации и сценариев --- все извне&lt;/div&gt;" style="text;html=1;align=center;verticalAlign=middle;resizable=0;points=[];autosize=1;strokeColor=#b85450;fillColor=#f8cecc;" vertex="1" parent="1">
          <mxGeometry x="810" y="60" width="300" height="40" as="geometry" />
        </mxCell>
        <mxCell id="7m-EHroy_bR_Oe2y78SF-16" style="edgeStyle=orthogonalEdgeStyle;rounded=0;orthogonalLoop=1;jettySize=auto;html=1;entryX=0.5;entryY=1;entryDx=0;entryDy=0;" edge="1" parent="1" source="7m-EHroy_bR_Oe2y78SF-15" target="7m-EHroy_bR_Oe2y78SF-2">
          <mxGeometry relative="1" as="geometry" />
        </mxCell>
        <mxCell id="7m-EHroy_bR_Oe2y78SF-15" value="Оформить отдельным уровнем&lt;div&gt;абстракции или реализовать как&lt;/div&gt;&lt;div&gt;provider?&lt;/div&gt;" style="text;html=1;align=center;verticalAlign=middle;resizable=0;points=[];autosize=1;strokeColor=#6c8ebf;fillColor=#dae8fc;dashed=1;dashPattern=8 8;opacity=75;" vertex="1" parent="1">
          <mxGeometry x="255" y="480" width="210" height="60" as="geometry" />
        </mxCell>
        <mxCell id="7m-EHroy_bR_Oe2y78SF-7" value="- Хранится список&lt;div&gt;синхронизированных&amp;nbsp;&lt;span style=&quot;background-color: initial;&quot;&gt;устройств&lt;/span&gt;&lt;/div&gt;&lt;div&gt;&lt;span style=&quot;background-color: initial;&quot;&gt;- Хранится последнее заданное&lt;/span&gt;&lt;/div&gt;&lt;div&gt;&lt;span style=&quot;background-color: initial;&quot;&gt;состояние&lt;/span&gt;&lt;/div&gt;&lt;div&gt;&lt;span style=&quot;background-color: initial;&quot;&gt;- Хранится состояние по умолчанию&lt;/span&gt;&lt;/div&gt;&lt;div&gt;&lt;span style=&quot;background-color: initial;&quot;&gt;- Обновляется по запросу&lt;/span&gt;&lt;/div&gt;" style="text;html=1;align=left;verticalAlign=middle;resizable=0;points=[];autosize=1;fillColor=default;" vertex="1" parent="1">
          <mxGeometry x="260" y="360" width="230" height="100" as="geometry" />
        </mxCell>
        <mxCell id="fIkV-h5cf1gU-EVV6kM0-1" value="Подразумевается управление только&lt;div&gt;зарегистрированными устройствами, добавление&lt;/div&gt;&lt;div&gt;производится предусмотренным производителем&lt;/div&gt;&lt;div&gt;способом&lt;/div&gt;" style="text;html=1;align=center;verticalAlign=middle;resizable=0;points=[];autosize=1;strokeColor=#b85450;fillColor=#f8cecc;" vertex="1" parent="1">
          <mxGeometry x="810" y="110" width="300" height="70" as="geometry" />
        </mxCell>
      </root>
    </mxGraphModel>
  </diagram>
  <diagram name="Страница — 1" id="nFpcR0PGWX4GZ_cPVXAJ">
    <mxGraphModel dx="1967" dy="1108" grid="1" gridSize="10" guides="1" tooltips="1" connect="1" arrows="1" fold="1" page="0" pageScale="1" pageWidth="827" pageHeight="1169" math="1" shadow="0">
      <root>
        <mxCell id="0" />
        <mxCell id="1" parent="0" />
        <mxCell id="gjtUw0nAYGsslFbR5oF0-1" value="Light" style="swimlane;fontStyle=0;childLayout=stackLayout;horizontal=1;startSize=26;fillColor=none;horizontalStack=0;resizeParent=1;resizeParentMax=0;resizeLast=0;collapsible=1;marginBottom=0;whiteSpace=wrap;html=1;" vertex="1" parent="1">
          <mxGeometry x="-30" y="76" width="140" height="364" as="geometry" />
        </mxCell>
        <mxCell id="gjtUw0nAYGsslFbR5oF0-2" value="+ provider()" style="text;strokeColor=none;fillColor=none;align=left;verticalAlign=top;spacingLeft=4;spacingRight=4;overflow=hidden;rotatable=0;points=[[0,0.5],[1,0.5]];portConstraint=eastwest;whiteSpace=wrap;html=1;" vertex="1" parent="gjtUw0nAYGsslFbR5oF0-1">
          <mxGeometry y="26" width="140" height="26" as="geometry" />
        </mxCell>
        <mxCell id="gjtUw0nAYGsslFbR5oF0-11" value="+ provider_id()" style="text;strokeColor=none;fillColor=none;align=left;verticalAlign=top;spacingLeft=4;spacingRight=4;overflow=hidden;rotatable=0;points=[[0,0.5],[1,0.5]];portConstraint=eastwest;whiteSpace=wrap;html=1;" vertex="1" parent="gjtUw0nAYGsslFbR5oF0-1">
          <mxGeometry y="52" width="140" height="26" as="geometry" />
        </mxCell>
        <mxCell id="gjtUw0nAYGsslFbR5oF0-12" value="+ get_name()" style="text;strokeColor=none;fillColor=none;align=left;verticalAlign=top;spacingLeft=4;spacingRight=4;overflow=hidden;rotatable=0;points=[[0,0.5],[1,0.5]];portConstraint=eastwest;whiteSpace=wrap;html=1;" vertex="1" parent="gjtUw0nAYGsslFbR5oF0-1">
          <mxGeometry y="78" width="140" height="26" as="geometry" />
        </mxCell>
        <mxCell id="gjtUw0nAYGsslFbR5oF0-29" value="+ set_name()" style="text;strokeColor=none;fillColor=none;align=left;verticalAlign=top;spacingLeft=4;spacingRight=4;overflow=hidden;rotatable=0;points=[[0,0.5],[1,0.5]];portConstraint=eastwest;whiteSpace=wrap;html=1;" vertex="1" parent="gjtUw0nAYGsslFbR5oF0-1">
          <mxGeometry y="104" width="140" height="26" as="geometry" />
        </mxCell>
        <mxCell id="gjtUw0nAYGsslFbR5oF0-3" value="+ turn(bool)" style="text;strokeColor=none;fillColor=none;align=left;verticalAlign=top;spacingLeft=4;spacingRight=4;overflow=hidden;rotatable=0;points=[[0,0.5],[1,0.5]];portConstraint=eastwest;whiteSpace=wrap;html=1;" vertex="1" parent="gjtUw0nAYGsslFbR5oF0-1">
          <mxGeometry y="130" width="140" height="26" as="geometry" />
        </mxCell>
        <mxCell id="gjtUw0nAYGsslFbR5oF0-4" value="+ toggle()" style="text;strokeColor=none;fillColor=none;align=left;verticalAlign=top;spacingLeft=4;spacingRight=4;overflow=hidden;rotatable=0;points=[[0,0.5],[1,0.5]];portConstraint=eastwest;whiteSpace=wrap;html=1;" vertex="1" parent="gjtUw0nAYGsslFbR5oF0-1">
          <mxGeometry y="156" width="140" height="26" as="geometry" />
        </mxCell>
        <mxCell id="E7ff19HsFTlamK6dR7R7-41" value="+ is_capable()" style="text;strokeColor=none;fillColor=none;align=left;verticalAlign=top;spacingLeft=4;spacingRight=4;overflow=hidden;rotatable=0;points=[[0,0.5],[1,0.5]];portConstraint=eastwest;whiteSpace=wrap;html=1;" vertex="1" parent="gjtUw0nAYGsslFbR5oF0-1">
          <mxGeometry y="182" width="140" height="26" as="geometry" />
        </mxCell>
        <mxCell id="gjtUw0nAYGsslFbR5oF0-9" value="+ get_color()" style="text;strokeColor=none;fillColor=none;align=left;verticalAlign=top;spacingLeft=4;spacingRight=4;overflow=hidden;rotatable=0;points=[[0,0.5],[1,0.5]];portConstraint=eastwest;whiteSpace=wrap;html=1;" vertex="1" parent="gjtUw0nAYGsslFbR5oF0-1">
          <mxGeometry y="208" width="140" height="26" as="geometry" />
        </mxCell>
        <mxCell id="gjtUw0nAYGsslFbR5oF0-6" value="+ set_color()" style="text;strokeColor=none;fillColor=none;align=left;verticalAlign=top;spacingLeft=4;spacingRight=4;overflow=hidden;rotatable=0;points=[[0,0.5],[1,0.5]];portConstraint=eastwest;whiteSpace=wrap;html=1;" vertex="1" parent="gjtUw0nAYGsslFbR5oF0-1">
          <mxGeometry y="234" width="140" height="26" as="geometry" />
        </mxCell>
        <mxCell id="gjtUw0nAYGsslFbR5oF0-8" value="+ get_brightness()" style="text;strokeColor=none;fillColor=none;align=left;verticalAlign=top;spacingLeft=4;spacingRight=4;overflow=hidden;rotatable=0;points=[[0,0.5],[1,0.5]];portConstraint=eastwest;whiteSpace=wrap;html=1;" vertex="1" parent="gjtUw0nAYGsslFbR5oF0-1">
          <mxGeometry y="260" width="140" height="26" as="geometry" />
        </mxCell>
        <mxCell id="gjtUw0nAYGsslFbR5oF0-10" value="+ set_brightness()" style="text;strokeColor=none;fillColor=none;align=left;verticalAlign=top;spacingLeft=4;spacingRight=4;overflow=hidden;rotatable=0;points=[[0,0.5],[1,0.5]];portConstraint=eastwest;whiteSpace=wrap;html=1;" vertex="1" parent="gjtUw0nAYGsslFbR5oF0-1">
          <mxGeometry y="286" width="140" height="26" as="geometry" />
        </mxCell>
        <mxCell id="E7ff19HsFTlamK6dR7R7-37" value="+ get_mode()" style="text;strokeColor=none;fillColor=none;align=left;verticalAlign=top;spacingLeft=4;spacingRight=4;overflow=hidden;rotatable=0;points=[[0,0.5],[1,0.5]];portConstraint=eastwest;whiteSpace=wrap;html=1;" vertex="1" parent="gjtUw0nAYGsslFbR5oF0-1">
          <mxGeometry y="312" width="140" height="26" as="geometry" />
        </mxCell>
        <mxCell id="E7ff19HsFTlamK6dR7R7-38" value="+ set_mode()" style="text;strokeColor=none;fillColor=none;align=left;verticalAlign=top;spacingLeft=4;spacingRight=4;overflow=hidden;rotatable=0;points=[[0,0.5],[1,0.5]];portConstraint=eastwest;whiteSpace=wrap;html=1;" vertex="1" parent="gjtUw0nAYGsslFbR5oF0-1">
          <mxGeometry y="338" width="140" height="26" as="geometry" />
        </mxCell>
        <mxCell id="gjtUw0nAYGsslFbR5oF0-13" value="IColor" style="swimlane;fontStyle=0;childLayout=stackLayout;horizontal=1;startSize=26;fillColor=none;horizontalStack=0;resizeParent=1;resizeParentMax=0;resizeLast=0;collapsible=1;marginBottom=0;whiteSpace=wrap;html=1;" vertex="1" parent="1">
          <mxGeometry x="-360" y="160" width="140" height="78" as="geometry" />
        </mxCell>
        <mxCell id="gjtUw0nAYGsslFbR5oF0-26" value="+ to_rgb()" style="text;strokeColor=none;fillColor=none;align=left;verticalAlign=top;spacingLeft=4;spacingRight=4;overflow=hidden;rotatable=0;points=[[0,0.5],[1,0.5]];portConstraint=eastwest;whiteSpace=wrap;html=1;" vertex="1" parent="gjtUw0nAYGsslFbR5oF0-13">
          <mxGeometry y="26" width="140" height="26" as="geometry" />
        </mxCell>
        <mxCell id="E7ff19HsFTlamK6dR7R7-42" value="+ to_hsv()" style="text;strokeColor=none;fillColor=none;align=left;verticalAlign=top;spacingLeft=4;spacingRight=4;overflow=hidden;rotatable=0;points=[[0,0.5],[1,0.5]];portConstraint=eastwest;whiteSpace=wrap;html=1;" vertex="1" parent="gjtUw0nAYGsslFbR5oF0-13">
          <mxGeometry y="52" width="140" height="26" as="geometry" />
        </mxCell>
        <mxCell id="gjtUw0nAYGsslFbR5oF0-35" style="edgeStyle=orthogonalEdgeStyle;rounded=0;orthogonalLoop=1;jettySize=auto;html=1;exitX=0;exitY=0.5;exitDx=0;exitDy=0;endArrow=none;endFill=0;" edge="1" parent="1" source="gjtUw0nAYGsslFbR5oF0-30">
          <mxGeometry relative="1" as="geometry">
            <mxPoint x="-290" y="295.72413793103453" as="targetPoint" />
          </mxGeometry>
        </mxCell>
        <mxCell id="gjtUw0nAYGsslFbR5oF0-30" value="TemperatureColor" style="swimlane;fontStyle=0;childLayout=stackLayout;horizontal=1;startSize=26;fillColor=none;horizontalStack=0;resizeParent=1;resizeParentMax=0;resizeLast=0;collapsible=1;marginBottom=0;whiteSpace=wrap;html=1;" vertex="1" parent="1">
          <mxGeometry x="-260" y="270" width="140" height="52" as="geometry" />
        </mxCell>
        <mxCell id="gjtUw0nAYGsslFbR5oF0-34" style="edgeStyle=orthogonalEdgeStyle;rounded=0;orthogonalLoop=1;jettySize=auto;html=1;exitX=0;exitY=0.5;exitDx=0;exitDy=0;endArrow=block;endFill=0;" edge="1" parent="1" source="gjtUw0nAYGsslFbR5oF0-33" target="gjtUw0nAYGsslFbR5oF0-13">
          <mxGeometry relative="1" as="geometry" />
        </mxCell>
        <mxCell id="gjtUw0nAYGsslFbR5oF0-33" value="RGBColor" style="swimlane;fontStyle=0;childLayout=stackLayout;horizontal=1;startSize=26;fillColor=none;horizontalStack=0;resizeParent=1;resizeParentMax=0;resizeLast=0;collapsible=1;marginBottom=0;whiteSpace=wrap;html=1;" vertex="1" parent="1">
          <mxGeometry x="-260" y="340" width="140" height="52" as="geometry" />
        </mxCell>
        <mxCell id="gjtUw0nAYGsslFbR5oF0-37" style="edgeStyle=orthogonalEdgeStyle;rounded=0;orthogonalLoop=1;jettySize=auto;html=1;exitX=0;exitY=0.5;exitDx=0;exitDy=0;entryX=0.5;entryY=0;entryDx=0;entryDy=0;" edge="1" parent="1" source="gjtUw0nAYGsslFbR5oF0-9" target="gjtUw0nAYGsslFbR5oF0-13">
          <mxGeometry relative="1" as="geometry">
            <Array as="points">
              <mxPoint x="-100" y="297" />
              <mxPoint x="-100" y="130" />
              <mxPoint x="-290" y="130" />
            </Array>
          </mxGeometry>
        </mxCell>
        <mxCell id="gjtUw0nAYGsslFbR5oF0-38" value="Provider" style="swimlane;fontStyle=0;childLayout=stackLayout;horizontal=1;startSize=26;fillColor=none;horizontalStack=0;resizeParent=1;resizeParentMax=0;resizeLast=0;collapsible=1;marginBottom=0;whiteSpace=wrap;html=1;" vertex="1" parent="1">
          <mxGeometry x="350" y="210" width="140" height="156" as="geometry" />
        </mxCell>
        <mxCell id="gjtUw0nAYGsslFbR5oF0-39" value="+ name()" style="text;strokeColor=none;fillColor=none;align=left;verticalAlign=top;spacingLeft=4;spacingRight=4;overflow=hidden;rotatable=0;points=[[0,0.5],[1,0.5]];portConstraint=eastwest;whiteSpace=wrap;html=1;" vertex="1" parent="gjtUw0nAYGsslFbR5oF0-38">
          <mxGeometry y="26" width="140" height="26" as="geometry" />
        </mxCell>
        <mxCell id="gjtUw0nAYGsslFbR5oF0-41" value="+ list()" style="text;strokeColor=none;fillColor=none;align=left;verticalAlign=top;spacingLeft=4;spacingRight=4;overflow=hidden;rotatable=0;points=[[0,0.5],[1,0.5]];portConstraint=eastwest;whiteSpace=wrap;html=1;" vertex="1" parent="gjtUw0nAYGsslFbR5oF0-38">
          <mxGeometry y="52" width="140" height="26" as="geometry" />
        </mxCell>
        <mxCell id="gjtUw0nAYGsslFbR5oF0-43" value="+ get(id)" style="text;strokeColor=none;fillColor=none;align=left;verticalAlign=top;spacingLeft=4;spacingRight=4;overflow=hidden;rotatable=0;points=[[0,0.5],[1,0.5]];portConstraint=eastwest;whiteSpace=wrap;html=1;" vertex="1" parent="gjtUw0nAYGsslFbR5oF0-38">
          <mxGeometry y="78" width="140" height="26" as="geometry" />
        </mxCell>
        <mxCell id="E7ff19HsFTlamK6dR7R7-2" value="+ sync(light)" style="text;strokeColor=none;fillColor=none;align=left;verticalAlign=top;spacingLeft=4;spacingRight=4;overflow=hidden;rotatable=0;points=[[0,0.5],[1,0.5]];portConstraint=eastwest;whiteSpace=wrap;html=1;" vertex="1" parent="gjtUw0nAYGsslFbR5oF0-38">
          <mxGeometry y="104" width="140" height="26" as="geometry" />
        </mxCell>
        <mxCell id="E7ff19HsFTlamK6dR7R7-60" value="+ get_mode()" style="text;strokeColor=none;fillColor=none;align=left;verticalAlign=top;spacingLeft=4;spacingRight=4;overflow=hidden;rotatable=0;points=[[0,0.5],[1,0.5]];portConstraint=eastwest;whiteSpace=wrap;html=1;" vertex="1" parent="gjtUw0nAYGsslFbR5oF0-38">
          <mxGeometry y="130" width="140" height="26" as="geometry" />
        </mxCell>
        <mxCell id="E7ff19HsFTlamK6dR7R7-3" value="LocalRegistry" style="swimlane;fontStyle=0;childLayout=stackLayout;horizontal=1;startSize=26;fillColor=none;horizontalStack=0;resizeParent=1;resizeParentMax=0;resizeLast=0;collapsible=1;marginBottom=0;whiteSpace=wrap;html=1;" vertex="1" parent="1">
          <mxGeometry x="520" y="210" width="140" height="208" as="geometry" />
        </mxCell>
        <mxCell id="E7ff19HsFTlamK6dR7R7-4" value="+ name()" style="text;strokeColor=none;fillColor=none;align=left;verticalAlign=top;spacingLeft=4;spacingRight=4;overflow=hidden;rotatable=0;points=[[0,0.5],[1,0.5]];portConstraint=eastwest;whiteSpace=wrap;html=1;" vertex="1" parent="E7ff19HsFTlamK6dR7R7-3">
          <mxGeometry y="26" width="140" height="26" as="geometry" />
        </mxCell>
        <mxCell id="E7ff19HsFTlamK6dR7R7-5" value="+ list_default()" style="text;strokeColor=none;fillColor=none;align=left;verticalAlign=top;spacingLeft=4;spacingRight=4;overflow=hidden;rotatable=0;points=[[0,0.5],[1,0.5]];portConstraint=eastwest;whiteSpace=wrap;html=1;" vertex="1" parent="E7ff19HsFTlamK6dR7R7-3">
          <mxGeometry y="52" width="140" height="26" as="geometry" />
        </mxCell>
        <mxCell id="E7ff19HsFTlamK6dR7R7-13" value="+ list_dump()" style="text;strokeColor=none;fillColor=none;align=left;verticalAlign=top;spacingLeft=4;spacingRight=4;overflow=hidden;rotatable=0;points=[[0,0.5],[1,0.5]];portConstraint=eastwest;whiteSpace=wrap;html=1;" vertex="1" parent="E7ff19HsFTlamK6dR7R7-3">
          <mxGeometry y="78" width="140" height="26" as="geometry" />
        </mxCell>
        <mxCell id="E7ff19HsFTlamK6dR7R7-12" value="+ load_default(name)" style="text;strokeColor=none;fillColor=none;align=left;verticalAlign=top;spacingLeft=4;spacingRight=4;overflow=hidden;rotatable=0;points=[[0,0.5],[1,0.5]];portConstraint=eastwest;whiteSpace=wrap;html=1;" vertex="1" parent="E7ff19HsFTlamK6dR7R7-3">
          <mxGeometry y="104" width="140" height="26" as="geometry" />
        </mxCell>
        <mxCell id="E7ff19HsFTlamK6dR7R7-6" value="+ load_dump(name)" style="text;strokeColor=none;fillColor=none;align=left;verticalAlign=top;spacingLeft=4;spacingRight=4;overflow=hidden;rotatable=0;points=[[0,0.5],[1,0.5]];portConstraint=eastwest;whiteSpace=wrap;html=1;" vertex="1" parent="E7ff19HsFTlamK6dR7R7-3">
          <mxGeometry y="130" width="140" height="26" as="geometry" />
        </mxCell>
        <mxCell id="E7ff19HsFTlamK6dR7R7-7" value="+ dump(light)" style="text;strokeColor=none;fillColor=none;align=left;verticalAlign=top;spacingLeft=4;spacingRight=4;overflow=hidden;rotatable=0;points=[[0,0.5],[1,0.5]];portConstraint=eastwest;whiteSpace=wrap;html=1;" vertex="1" parent="E7ff19HsFTlamK6dR7R7-3">
          <mxGeometry y="156" width="140" height="26" as="geometry" />
        </mxCell>
        <mxCell id="E7ff19HsFTlamK6dR7R7-11" value="+ default(light)" style="text;strokeColor=none;fillColor=none;align=left;verticalAlign=top;spacingLeft=4;spacingRight=4;overflow=hidden;rotatable=0;points=[[0,0.5],[1,0.5]];portConstraint=eastwest;whiteSpace=wrap;html=1;" vertex="1" parent="E7ff19HsFTlamK6dR7R7-3">
          <mxGeometry y="182" width="140" height="26" as="geometry" />
        </mxCell>
        <mxCell id="E7ff19HsFTlamK6dR7R7-14" value="Mode" style="swimlane;fontStyle=0;childLayout=stackLayout;horizontal=1;startSize=26;fillColor=none;horizontalStack=0;resizeParent=1;resizeParentMax=0;resizeLast=0;collapsible=1;marginBottom=0;whiteSpace=wrap;html=1;" vertex="1" parent="1">
          <mxGeometry x="-360" y="440" width="140" height="104" as="geometry" />
        </mxCell>
        <mxCell id="E7ff19HsFTlamK6dR7R7-15" value="+ provider()" style="text;strokeColor=none;fillColor=none;align=left;verticalAlign=top;spacingLeft=4;spacingRight=4;overflow=hidden;rotatable=0;points=[[0,0.5],[1,0.5]];portConstraint=eastwest;whiteSpace=wrap;html=1;" vertex="1" parent="E7ff19HsFTlamK6dR7R7-14">
          <mxGeometry y="26" width="140" height="26" as="geometry" />
        </mxCell>
        <mxCell id="E7ff19HsFTlamK6dR7R7-16" value="+ name()" style="text;strokeColor=none;fillColor=none;align=left;verticalAlign=top;spacingLeft=4;spacingRight=4;overflow=hidden;rotatable=0;points=[[0,0.5],[1,0.5]];portConstraint=eastwest;whiteSpace=wrap;html=1;" vertex="1" parent="E7ff19HsFTlamK6dR7R7-14">
          <mxGeometry y="52" width="140" height="26" as="geometry" />
        </mxCell>
        <mxCell id="E7ff19HsFTlamK6dR7R7-17" value="+ parameters()" style="text;strokeColor=none;fillColor=none;align=left;verticalAlign=top;spacingLeft=4;spacingRight=4;overflow=hidden;rotatable=0;points=[[0,0.5],[1,0.5]];portConstraint=eastwest;whiteSpace=wrap;html=1;" vertex="1" parent="E7ff19HsFTlamK6dR7R7-14">
          <mxGeometry y="78" width="140" height="26" as="geometry" />
        </mxCell>
        <mxCell id="E7ff19HsFTlamK6dR7R7-18" value="Parameter" style="swimlane;fontStyle=0;childLayout=stackLayout;horizontal=1;startSize=26;fillColor=none;horizontalStack=0;resizeParent=1;resizeParentMax=0;resizeLast=0;collapsible=1;marginBottom=0;whiteSpace=wrap;html=1;" vertex="1" parent="1">
          <mxGeometry x="-600" y="440" width="140" height="104" as="geometry" />
        </mxCell>
        <mxCell id="E7ff19HsFTlamK6dR7R7-20" value="+ name()" style="text;strokeColor=none;fillColor=none;align=left;verticalAlign=top;spacingLeft=4;spacingRight=4;overflow=hidden;rotatable=0;points=[[0,0.5],[1,0.5]];portConstraint=eastwest;whiteSpace=wrap;html=1;" vertex="1" parent="E7ff19HsFTlamK6dR7R7-18">
          <mxGeometry y="26" width="140" height="26" as="geometry" />
        </mxCell>
        <mxCell id="E7ff19HsFTlamK6dR7R7-22" value="+ type()" style="text;strokeColor=none;fillColor=none;align=left;verticalAlign=top;spacingLeft=4;spacingRight=4;overflow=hidden;rotatable=0;points=[[0,0.5],[1,0.5]];portConstraint=eastwest;whiteSpace=wrap;html=1;" vertex="1" parent="E7ff19HsFTlamK6dR7R7-18">
          <mxGeometry y="52" width="140" height="26" as="geometry" />
        </mxCell>
        <mxCell id="E7ff19HsFTlamK6dR7R7-21" value="+ value()" style="text;strokeColor=none;fillColor=none;align=left;verticalAlign=top;spacingLeft=4;spacingRight=4;overflow=hidden;rotatable=0;points=[[0,0.5],[1,0.5]];portConstraint=eastwest;whiteSpace=wrap;html=1;" vertex="1" parent="E7ff19HsFTlamK6dR7R7-18">
          <mxGeometry y="78" width="140" height="26" as="geometry" />
        </mxCell>
        <mxCell id="E7ff19HsFTlamK6dR7R7-36" style="edgeStyle=orthogonalEdgeStyle;rounded=0;orthogonalLoop=1;jettySize=auto;html=1;exitX=0;exitY=0.5;exitDx=0;exitDy=0;strokeColor=default;align=center;verticalAlign=middle;fontFamily=Helvetica;fontSize=11;fontColor=default;labelBackgroundColor=default;endArrow=none;endFill=0;" edge="1" parent="1" source="E7ff19HsFTlamK6dR7R7-23">
          <mxGeometry relative="1" as="geometry">
            <mxPoint x="-530" y="596.2857142857142" as="targetPoint" />
          </mxGeometry>
        </mxCell>
        <mxCell id="E7ff19HsFTlamK6dR7R7-23" value="StringParameter" style="swimlane;fontStyle=0;childLayout=stackLayout;horizontal=1;startSize=26;fillColor=none;horizontalStack=0;resizeParent=1;resizeParentMax=0;resizeLast=0;collapsible=1;marginBottom=0;whiteSpace=wrap;html=1;" vertex="1" parent="1">
          <mxGeometry x="-510" y="570" width="140" height="52" as="geometry" />
        </mxCell>
        <mxCell id="E7ff19HsFTlamK6dR7R7-35" style="edgeStyle=orthogonalEdgeStyle;rounded=0;orthogonalLoop=1;jettySize=auto;html=1;exitX=0;exitY=0.5;exitDx=0;exitDy=0;strokeColor=default;align=center;verticalAlign=middle;fontFamily=Helvetica;fontSize=11;fontColor=default;labelBackgroundColor=default;endArrow=none;endFill=0;" edge="1" parent="1" source="E7ff19HsFTlamK6dR7R7-27">
          <mxGeometry relative="1" as="geometry">
            <mxPoint x="-530" y="656.2857142857142" as="targetPoint" />
          </mxGeometry>
        </mxCell>
        <mxCell id="E7ff19HsFTlamK6dR7R7-27" value="IntParameter" style="swimlane;fontStyle=0;childLayout=stackLayout;horizontal=1;startSize=26;fillColor=none;horizontalStack=0;resizeParent=1;resizeParentMax=0;resizeLast=0;collapsible=1;marginBottom=0;whiteSpace=wrap;html=1;" vertex="1" parent="1">
          <mxGeometry x="-510" y="630" width="140" height="52" as="geometry" />
        </mxCell>
        <mxCell id="E7ff19HsFTlamK6dR7R7-34" style="edgeStyle=orthogonalEdgeStyle;rounded=0;orthogonalLoop=1;jettySize=auto;html=1;exitX=0;exitY=0.5;exitDx=0;exitDy=0;endArrow=none;endFill=0;" edge="1" parent="1" source="E7ff19HsFTlamK6dR7R7-28">
          <mxGeometry relative="1" as="geometry">
            <mxPoint x="-530" y="716.2857142857142" as="targetPoint" />
          </mxGeometry>
        </mxCell>
        <mxCell id="E7ff19HsFTlamK6dR7R7-28" value="FloatParameter" style="swimlane;fontStyle=0;childLayout=stackLayout;horizontal=1;startSize=26;fillColor=none;horizontalStack=0;resizeParent=1;resizeParentMax=0;resizeLast=0;collapsible=1;marginBottom=0;whiteSpace=wrap;html=1;" vertex="1" parent="1">
          <mxGeometry x="-510" y="690" width="140" height="52" as="geometry" />
        </mxCell>
        <mxCell id="E7ff19HsFTlamK6dR7R7-33" style="edgeStyle=orthogonalEdgeStyle;rounded=0;orthogonalLoop=1;jettySize=auto;html=1;exitX=0;exitY=0.5;exitDx=0;exitDy=0;endArrow=none;endFill=0;" edge="1" parent="1" source="E7ff19HsFTlamK6dR7R7-29">
          <mxGeometry relative="1" as="geometry">
            <mxPoint x="-530" y="776.2857142857142" as="targetPoint" />
          </mxGeometry>
        </mxCell>
        <mxCell id="E7ff19HsFTlamK6dR7R7-29" value="GroupParameter" style="swimlane;fontStyle=0;childLayout=stackLayout;horizontal=1;startSize=26;fillColor=none;horizontalStack=0;resizeParent=1;resizeParentMax=0;resizeLast=0;collapsible=1;marginBottom=0;whiteSpace=wrap;html=1;" vertex="1" parent="1">
          <mxGeometry x="-510" y="750" width="140" height="52" as="geometry" />
        </mxCell>
        <mxCell id="E7ff19HsFTlamK6dR7R7-32" style="edgeStyle=orthogonalEdgeStyle;rounded=0;orthogonalLoop=1;jettySize=auto;html=1;exitX=0;exitY=0.5;exitDx=0;exitDy=0;endArrow=block;endFill=0;" edge="1" parent="1" source="E7ff19HsFTlamK6dR7R7-30" target="E7ff19HsFTlamK6dR7R7-18">
          <mxGeometry relative="1" as="geometry" />
        </mxCell>
        <mxCell id="E7ff19HsFTlamK6dR7R7-30" value="ArrayParameter" style="swimlane;fontStyle=0;childLayout=stackLayout;horizontal=1;startSize=26;fillColor=none;horizontalStack=0;resizeParent=1;resizeParentMax=0;resizeLast=0;collapsible=1;marginBottom=0;whiteSpace=wrap;html=1;" vertex="1" parent="1">
          <mxGeometry x="-510" y="810" width="140" height="52" as="geometry" />
        </mxCell>
        <mxCell id="E7ff19HsFTlamK6dR7R7-31" style="edgeStyle=orthogonalEdgeStyle;rounded=0;orthogonalLoop=1;jettySize=auto;html=1;exitX=0;exitY=0.5;exitDx=0;exitDy=0;entryX=1;entryY=0.135;entryDx=0;entryDy=0;entryPerimeter=0;" edge="1" parent="1" source="E7ff19HsFTlamK6dR7R7-17" target="E7ff19HsFTlamK6dR7R7-18">
          <mxGeometry relative="1" as="geometry" />
        </mxCell>
        <mxCell id="E7ff19HsFTlamK6dR7R7-40" style="edgeStyle=orthogonalEdgeStyle;rounded=0;orthogonalLoop=1;jettySize=auto;html=1;exitX=0;exitY=0.5;exitDx=0;exitDy=0;entryX=0.5;entryY=0;entryDx=0;entryDy=0;strokeColor=default;align=center;verticalAlign=middle;fontFamily=Helvetica;fontSize=11;fontColor=default;labelBackgroundColor=default;endArrow=classic;endFill=1;" edge="1" parent="1" source="E7ff19HsFTlamK6dR7R7-37" target="E7ff19HsFTlamK6dR7R7-14">
          <mxGeometry relative="1" as="geometry">
            <Array as="points">
              <mxPoint x="-100" y="401" />
              <mxPoint x="-100" y="410" />
              <mxPoint x="-290" y="410" />
            </Array>
          </mxGeometry>
        </mxCell>
        <mxCell id="E7ff19HsFTlamK6dR7R7-43" value="Facade" style="swimlane;fontStyle=0;childLayout=stackLayout;horizontal=1;startSize=26;fillColor=none;horizontalStack=0;resizeParent=1;resizeParentMax=0;resizeLast=0;collapsible=1;marginBottom=0;whiteSpace=wrap;html=1;" vertex="1" parent="1">
          <mxGeometry x="260" y="-340" width="140" height="52" as="geometry" />
        </mxCell>
        <mxCell id="E7ff19HsFTlamK6dR7R7-44" value="+ execute()" style="text;strokeColor=none;fillColor=none;align=left;verticalAlign=top;spacingLeft=4;spacingRight=4;overflow=hidden;rotatable=0;points=[[0,0.5],[1,0.5]];portConstraint=eastwest;whiteSpace=wrap;html=1;" vertex="1" parent="E7ff19HsFTlamK6dR7R7-43">
          <mxGeometry y="26" width="140" height="26" as="geometry" />
        </mxCell>
        <mxCell id="E7ff19HsFTlamK6dR7R7-57" value="Command" style="swimlane;fontStyle=0;childLayout=stackLayout;horizontal=1;startSize=26;fillColor=none;horizontalStack=0;resizeParent=1;resizeParentMax=0;resizeLast=0;collapsible=1;marginBottom=0;whiteSpace=wrap;html=1;" vertex="1" parent="1">
          <mxGeometry x="70" y="-340" width="140" height="52" as="geometry" />
        </mxCell>
        <mxCell id="E7ff19HsFTlamK6dR7R7-58" value="+ execute(context)" style="text;strokeColor=none;fillColor=none;align=left;verticalAlign=top;spacingLeft=4;spacingRight=4;overflow=hidden;rotatable=0;points=[[0,0.5],[1,0.5]];portConstraint=eastwest;whiteSpace=wrap;html=1;" vertex="1" parent="E7ff19HsFTlamK6dR7R7-57">
          <mxGeometry y="26" width="140" height="26" as="geometry" />
        </mxCell>
        <mxCell id="E7ff19HsFTlamK6dR7R7-59" style="edgeStyle=orthogonalEdgeStyle;rounded=0;orthogonalLoop=1;jettySize=auto;html=1;exitX=0;exitY=0.5;exitDx=0;exitDy=0;entryX=1;entryY=0.25;entryDx=0;entryDy=0;strokeColor=default;align=center;verticalAlign=middle;fontFamily=Helvetica;fontSize=11;fontColor=default;labelBackgroundColor=default;endArrow=classic;endFill=1;startArrow=diamondThin;startFill=0;" edge="1" parent="1" source="E7ff19HsFTlamK6dR7R7-44" target="E7ff19HsFTlamK6dR7R7-57">
          <mxGeometry relative="1" as="geometry" />
        </mxCell>
        <mxCell id="E7ff19HsFTlamK6dR7R7-62" value="IDumpable" style="swimlane;fontStyle=0;childLayout=stackLayout;horizontal=1;startSize=26;fillColor=none;horizontalStack=0;resizeParent=1;resizeParentMax=0;resizeLast=0;collapsible=1;marginBottom=0;whiteSpace=wrap;html=1;" vertex="1" parent="1">
          <mxGeometry x="-530" y="-50" width="140" height="78" as="geometry" />
        </mxCell>
        <mxCell id="E7ff19HsFTlamK6dR7R7-63" value="+ to_rgb()" style="text;strokeColor=none;fillColor=none;align=left;verticalAlign=top;spacingLeft=4;spacingRight=4;overflow=hidden;rotatable=0;points=[[0,0.5],[1,0.5]];portConstraint=eastwest;whiteSpace=wrap;html=1;" vertex="1" parent="E7ff19HsFTlamK6dR7R7-62">
          <mxGeometry y="26" width="140" height="26" as="geometry" />
        </mxCell>
        <mxCell id="E7ff19HsFTlamK6dR7R7-64" value="+ to_hsv()" style="text;strokeColor=none;fillColor=none;align=left;verticalAlign=top;spacingLeft=4;spacingRight=4;overflow=hidden;rotatable=0;points=[[0,0.5],[1,0.5]];portConstraint=eastwest;whiteSpace=wrap;html=1;" vertex="1" parent="E7ff19HsFTlamK6dR7R7-62">
          <mxGeometry y="52" width="140" height="26" as="geometry" />
        </mxCell>
        <mxCell id="E7ff19HsFTlamK6dR7R7-65" value="Dumper" style="swimlane;fontStyle=0;childLayout=stackLayout;horizontal=1;startSize=26;fillColor=none;horizontalStack=0;resizeParent=1;resizeParentMax=0;resizeLast=0;collapsible=1;marginBottom=0;whiteSpace=wrap;html=1;" vertex="1" parent="1">
          <mxGeometry x="-530" y="-190" width="140" height="78" as="geometry" />
        </mxCell>
        <mxCell id="E7ff19HsFTlamK6dR7R7-66" value="+ to_rgb()" style="text;strokeColor=none;fillColor=none;align=left;verticalAlign=top;spacingLeft=4;spacingRight=4;overflow=hidden;rotatable=0;points=[[0,0.5],[1,0.5]];portConstraint=eastwest;whiteSpace=wrap;html=1;" vertex="1" parent="E7ff19HsFTlamK6dR7R7-65">
          <mxGeometry y="26" width="140" height="26" as="geometry" />
        </mxCell>
        <mxCell id="E7ff19HsFTlamK6dR7R7-67" value="+ to_hsv()" style="text;strokeColor=none;fillColor=none;align=left;verticalAlign=top;spacingLeft=4;spacingRight=4;overflow=hidden;rotatable=0;points=[[0,0.5],[1,0.5]];portConstraint=eastwest;whiteSpace=wrap;html=1;" vertex="1" parent="E7ff19HsFTlamK6dR7R7-65">
          <mxGeometry y="52" width="140" height="26" as="geometry" />
        </mxCell>
      </root>
    </mxGraphModel>
  </diagram>
</mxfile>
